HIERARCHY
ROOT Hips
{
	OFFSET -0.001795 -0.223333 0.028219
	CHANNELS 6 Xposition Yposition Zposition Zrotation Yrotation Xrotation 
	JOINT LeftUpLeg
	{
		OFFSET 0.069520 -0.091406 -0.006815
		CHANNELS 3 Zrotation Yrotation Xrotation
		JOINT LeftLeg
		{
			OFFSET 0.034277 -0.375199 -0.004496
			CHANNELS 3 Zrotation Yrotation Xrotation
			JOINT LeftFoot
			{
				OFFSET -0.013596 -0.397961 -0.043693
				CHANNELS 3 Zrotation Yrotation Xrotation
				JOINT LeftToe
				{
					OFFSET 0.026358 -0.055791 0.119288
					CHANNELS 3 Zrotation Yrotation Xrotation
					End Site
					{
						OFFSET 0.000000 0.000000 0.000000
					}
				}
			}
		}
	}
	JOINT RightUpLeg
	{
		OFFSET -0.067670 -0.090522 -0.004320
		CHANNELS 3 Zrotation Yrotation Xrotation
		JOINT RightLeg
		{
			OFFSET -0.038290 -0.382569 -0.008850
			CHANNELS 3 Zrotation Yrotation Xrotation
			JOINT RightFoot
			{
				OFFSET 0.015774 -0.398415 -0.042312
				CHANNELS 3 Zrotation Yrotation Xrotation
				JOINT RightToe
				{
					OFFSET -0.025372 -0.048144 0.123348
					CHANNELS 3 Zrotation Yrotation Xrotation
					End Site
					{
						OFFSET 0.000000 0.000000 0.000000
					}
				}
			}
		}
	}
	JOINT Spine
	{
		OFFSET -0.002533 0.108963 -0.026696
		CHANNELS 3 Zrotation Yrotation Xrotation
		JOINT Spine1
		{
			OFFSET 0.005487 0.135180 0.001092
			CHANNELS 3 Zrotation Yrotation Xrotation
			JOINT Spine2
			{
				OFFSET 0.001457 0.052922 0.025425
				CHANNELS 3 Zrotation Yrotation Xrotation
				JOINT Neck
				{
					OFFSET -0.002778 0.213870 -0.042857
					CHANNELS 3 Zrotation Yrotation Xrotation
					JOINT Head
					{
						OFFSET 0.005152 0.064970 0.051349
						CHANNELS 3 Zrotation Yrotation Xrotation
						End Site
						{
							OFFSET 0.000000 0.000000 0.000000
						}
					}
				}
				JOINT LeftShoulder
				{
					OFFSET 0.078845 0.121749 -0.034090
					CHANNELS 3 Zrotation Yrotation Xrotation
					JOINT LeftArm
					{
						OFFSET 0.090977 0.030469 -0.008868
						CHANNELS 3 Zrotation Yrotation Xrotation
						JOINT LeftForeArm
						{
							OFFSET 0.259612 -0.012772 -0.027456
							CHANNELS 3 Zrotation Yrotation Xrotation
							JOINT LeftHand
							{
								OFFSET 0.249234 0.008986 -0.001171
								CHANNELS 3 Zrotation Yrotation Xrotation
								End Site
								{
									OFFSET 0.000000 0.000000 0.000000
								}
							}
						}
					}
				}
				JOINT RightShoulder
				{
					OFFSET -0.081759 0.118833 -0.038615
					CHANNELS 3 Zrotation Yrotation Xrotation
					JOINT RightArm
					{
						OFFSET -0.096012 0.032551 -0.009143
						CHANNELS 3 Zrotation Yrotation Xrotation
						JOINT RightForeArm
						{
							OFFSET -0.253742 -0.013329 -0.021401
							CHANNELS 3 Zrotation Yrotation Xrotation
							JOINT RightHand
							{
								OFFSET -0.255298 0.007772 -0.005559
								CHANNELS 3 Zrotation Yrotation Xrotation
								End Site
								{
									OFFSET 0.000000 0.000000 0.000000
								}
							}
						}
					}
				}
			}
		}
	}
}
MOTION
Frames: 7
Frame Time: 0.050000
0.000000 0.921659 0.000000 1.001218 -5.462730 -3.938008 5.792709 -0.539054 -17.595902 -3.691233 0.519444 9.655325 13.611378 24.304472 21.288819 0.000000 0.000000 0.000000 -3.065186 -0.263642 5.372984 1.310534 0.441289 14.541267 -2.144483 -3.145542 -4.227492 0.000000 0.000000 0.000000 7.840876 -1.500620 15.163928 -8.541149 2.726527 -22.237184 2.597023 11.020894 24.408333 11.533816 -7.239843 -11.660569 0.000000 0.000000 0.000000 -19.490502 -7.558768 0.984545 -41.297819 3.398824 -7.210559 -3.181017 -61.906528 3.690790 0.000000 0.000000 0.000000 27.339100 0.141273 1.058652 48.881014 15.667193 -1.565978 -1.407186 41.920982 2.585250 0.000000 0.000000 0.000000 
0.009774 0.921586 0.028755 0.620247 -6.580945 -3.857816 4.839410 -0.597126 -15.601641 -2.516499 0.296470 9.691017 14.631727 25.853502 18.745345 0.000000 0.000000 0.000000 -3.723415 -0.141255 4.387741 1.710323 0.614621 18.955724 -1.897566 -3.566160 -2.182950 0.000000 0.000000 0.000000 6.968135 -1.390511 15.401652 -7.891577 2.363659 -26.337740 2.873009 9.050827 27.880371 10.838067 -7.055049 -12.149211 0.000000 0.000000 0.000000 -19.506185 -6.861956 1.510733 -40.591861 0.617897 -6.763625 8.724319 -63.706556 -2.756239 0.000000 0.000000 0.000000 27.941651 0.551256 0.502257 49.443358 15.235122 -1.851949 -0.435143 41.048613 2.667189 0.000000 0.000000 0.000000 
0.019708 0.922730 0.056851 0.833594 -7.699750 -5.551631 4.031984 -0.594706 -13.454498 -2.870838 0.439077 12.648596 15.520772 27.348321 16.589747 0.000000 0.000000 0.000000 -5.604165 0.023172 3.782487 3.295051 0.665485 26.781470 -1.577786 -3.863998 -0.100253 0.000000 0.000000 0.000000 5.760884 -1.142129 14.781787 -6.811038 2.183105 -23.112029 1.184009 10.438251 27.042067 10.794351 -6.853593 -12.192570 0.000000 0.000000 0.000000 -17.564221 -9.351167 2.722411 -37.715493 -4.031387 -4.901958 24.591321 -63.894236 -13.078002 0.000000 0.000000 0.000000 29.621987 0.767800 0.934637 48.325873 13.744603 -2.593950 0.009479 39.466618 2.720474 0.000000 0.000000 0.000000 
0.028515 0.926681 0.082320 0.512345 -7.575862 -6.453620 3.548173 -0.576456 -11.658893 -2.931618 0.474364 14.186560 15.527956 27.677620 15.064957 0.000000 0.000000 0.000000 -6.147848 0.138847 1.095078 4.501125 0.689111 34.967315 -1.476702 -6.494522 6.146085 0.000000 0.000000 0.000000 4.214660 -0.936195 14.405098 -5.811492 1.954938 -21.524587 0.731812 7.359970 27.628031 9.266044 -6.360003 -10.955044 0.000000 0.000000 0.000000 -18.380710 -9.788291 3.729759 -33.722579 -7.965472 -3.731527 43.002518 -63.200104 -24.044682 0.000000 0.000000 0.000000 30.104737 2.104984 0.668335 48.262718 12.197931 -2.932747 0.342138 36.880155 2.298342 0.000000 0.000000 0.000000 
0.034936 0.932591 0.104185 -0.256592 -8.689410 -6.429481 3.889508 -0.391653 -8.900711 -3.004982 0.493722 12.272036 16.035805 28.465550 14.822315 0.000000 0.000000 0.000000 -6.565289 0.325584 -2.954208 6.420482 0.298474 39.726710 -2.672306 -11.258285 13.748023 0.000000 0.000000 0.000000 2.813167 -0.767820 14.359028 -4.196347 1.459330 -20.663466 0.658218 6.568737 27.041093 8.406580 -6.107930 -9.292605 0.000000 0.000000 0.000000 -17.669125 -12.026206 5.230375 -30.406217 -12.112664 -2.588893 54.769669 -60.357275 -30.044526 0.000000 0.000000 0.000000 29.980416 2.805589 0.467249 47.998177 9.651318 -3.580268 0.723494 35.135830 2.082982 0.000000 0.000000 0.000000 
0.039236 0.938709 0.122512 -1.087812 -10.011696 -6.245644 4.388122 -0.216361 -6.441889 -2.968714 0.481233 10.259279 16.609252 29.194662 15.316384 0.000000 0.000000 0.000000 -6.480882 0.468360 -5.700319 7.105313 0.171289 38.942879 -5.343346 -15.454639 10.787846 0.000000 0.000000 0.000000 3.103755 -0.831613 15.440207 -4.046685 1.367077 -22.720740 0.132634 4.369930 27.549351 7.212701 -5.479885 -9.477978 0.000000 0.000000 0.000000 -16.146147 -12.471869 6.057792 -28.524721 -16.071854 -1.930085 64.345631 -56.251196 -32.872867 0.000000 0.000000 0.000000 29.063084 3.224447 -0.411435 49.276970 6.964480 -4.368422 1.728800 32.958523 1.989065 0.000000 0.000000 0.000000 
0.041731 0.942726 0.138696 -2.158516 -11.123466 -5.416141 5.250314 -0.023064 -3.605027 -2.980189 0.439053 6.173805 17.052368 29.838739 15.487897 0.000000 0.000000 0.000000 -6.123887 0.574411 -7.151175 7.679377 -0.172045 33.676496 -6.306504 -16.130373 4.322300 0.000000 0.000000 0.000000 3.740698 -0.921675 15.828596 -3.206481 1.099244 -23.135042 -1.266435 4.231933 26.867568 7.562714 -5.944890 -8.684284 0.000000 0.000000 0.000000 -13.177260 -13.845612 6.526553 -26.958740 -20.073256 -1.104003 67.849313 -50.728176 -31.079444 0.000000 0.000000 0.000000 29.127733 1.782540 -1.700011 49.661169 4.884460 -5.062548 2.128796 32.062559 1.978944 0.000000 0.000000 0.000000 
